<svg height="360pt" preserveAspectRatio="xMidYMid meet" viewBox="0 0 480 360" width="480pt" xmlns="http://www.w3.org/2000/svg"><g transform="matrix(.1 0 0 -.1 0 360)"><path d="m1154 3120c-85-9-171-33-235-65-81-42-168-186-208-344-36-145-24-379 24-483 8-18 13-25 10-15-13 48-16 149-5 207 49 274 318 467 587 421 223-39 388-206 427-435l12-69 60 89c34 49 80 122 103 161l43 73-32 57c-160 283-463 439-786 403z"/><path d="m3907 2435c56-321-184-614-502-615-147 0-268 53-371 163-79 83-118 161-137 270l-13 78-50-73c-28-40-75-113-103-162l-53-90 17-35c71-149 245-308 412-376 130-53 331-70 458-41 127 30 197 64 238 114 52 65 113 192 138 287 36 144 24 377-27 489l-14 31z"/><path d="m1351 853c-67-33-71-50-71-308 0-332-7-325 314-325 224 0 250 5 296 55l25 27 3 284 3 284h-61c-96 0-150-32-170-99l-9-31h55 54v-195-195h-195-195v195 195h93c104 0 144 16 172 69 31 61 30 61-132 61-118 0-155-4-182-17z"/><path d="m2113 863c-26-5-72-49-84-81-5-13-9-64-9-113 0-103 13-139 63-169 29-18 51-20 240-20h207v-65-65h-207c-189 0-211-2-240-20-32-19-63-66-63-95 0-15 28-16 278-13 303 3 303 3 343 65 15 23 19 47 19 128s-4 105-19 128c-39 60-47 62-278 65l-213 3v65 64h205c229 0 250 5 285 63 43 69 50 67-242 66-145-1-273-4-285-6z"/><path d="m2821 853c-69-34-71-45-71-356v-278l253 3c231 3 255 5 286 23 118 70 133 223 27 278l-37 19 33 17c44 21 78 75 78 120-1 79-62 160-138 181-20 5-80 10-132 10-110 0-151-15-187-69-40-60-39-61 121-61 141 0 145-1 175-26 41-34 44-92 6-129-23-24-30-25-145-25-113 0-120-1-120-20s7-20 119-20c105 0 121-2 145-21 39-31 37-88-5-123-30-26-33-26-195-26h-164v260c0 143-3 260-7 260-5 0-23-8-42-17z"/></g></svg>